<svg xmlns="http://www.w3.org/2000/svg" xmlns:xlink="http://www.w3.org/1999/xlink" width="450" zoomAndPan="magnify" viewBox="0 0 337.5 131.249995" height="175" preserveAspectRatio="xMidYMid meet" version="1.0"><defs><g/><clipPath id="04b43fc240"><path d="M 7.234375 3 L 155.582031 3 L 155.582031 129 L 7.234375 129 Z M 7.234375 3 " clip-rule="nonzero"/></clipPath></defs><g clip-path="url(#04b43fc240)"><path fill="#5e17eb" d="M 154.25 72.679688 L 86.148438 5.304688 C 85.84375 5 85.511719 4.730469 85.15625 4.496094 C 84.796875 4.257812 84.421875 4.058594 84.023438 3.894531 C 83.628906 3.730469 83.21875 3.609375 82.796875 3.523438 C 82.378906 3.441406 81.953125 3.398438 81.523438 3.398438 C 81.09375 3.398438 80.667969 3.441406 80.25 3.523438 C 79.828125 3.609375 79.417969 3.730469 79.023438 3.894531 C 78.625 4.058594 78.25 4.257812 77.890625 4.496094 C 77.53125 4.730469 77.203125 5 76.898438 5.304688 L 50.851562 31.019531 L 50.851562 25.925781 C 50.851562 25.492188 50.765625 25.070312 50.601562 24.667969 C 50.433594 24.265625 50.195312 23.910156 49.886719 23.601562 C 49.578125 23.292969 49.222656 23.058594 48.820312 22.890625 C 48.417969 22.722656 48 22.640625 47.5625 22.640625 L 34.679688 22.640625 C 34.242188 22.640625 33.824219 22.722656 33.421875 22.890625 C 33.019531 23.058594 32.664062 23.292969 32.355469 23.601562 C 32.046875 23.910156 31.808594 24.265625 31.644531 24.667969 C 31.476562 25.070312 31.394531 25.492188 31.394531 25.925781 L 31.394531 50.332031 L 8.78125 72.679688 C 8.492188 72.964844 8.253906 73.285156 8.0625 73.640625 C 7.871094 73.992188 7.738281 74.367188 7.65625 74.765625 C 7.578125 75.160156 7.554688 75.558594 7.59375 75.957031 C 7.632812 76.359375 7.726562 76.746094 7.882812 77.121094 C 8.035156 77.492188 8.238281 77.835938 8.492188 78.148438 C 8.746094 78.460938 9.042969 78.730469 9.375 78.953125 C 9.710938 79.179688 10.070312 79.351562 10.457031 79.46875 C 10.84375 79.585938 11.238281 79.648438 11.640625 79.648438 L 31.226562 79.648438 L 31.226562 119.484375 C 31.226562 120.078125 31.285156 120.667969 31.402344 121.25 C 31.519531 121.832031 31.691406 122.398438 31.917969 122.949219 C 32.144531 123.496094 32.425781 124.019531 32.753906 124.515625 C 33.085938 125.007812 33.460938 125.464844 33.878906 125.886719 C 34.300781 126.304688 34.757812 126.683594 35.253906 127.011719 C 35.746094 127.34375 36.269531 127.621094 36.816406 127.847656 C 37.367188 128.078125 37.933594 128.25 38.515625 128.363281 C 39.101562 128.480469 39.6875 128.539062 40.285156 128.539062 L 57.324219 128.539062 C 56.257812 127.703125 55.234375 126.816406 54.257812 125.878906 C 53.285156 124.941406 52.359375 123.953125 51.484375 122.917969 C 50.609375 121.882812 49.792969 120.804688 49.03125 119.6875 C 48.265625 118.566406 47.5625 117.410156 46.921875 116.21875 C 46.277344 115.027344 45.699219 113.804688 45.179688 112.554688 C 44.664062 111.300781 44.210938 110.027344 43.828125 108.726562 C 43.441406 107.429688 43.125 106.113281 42.875 104.78125 C 42.628906 103.453125 42.449219 102.109375 42.335938 100.761719 C 42.226562 99.410156 42.1875 98.058594 42.214844 96.703125 C 42.246094 95.351562 42.34375 94 42.511719 92.65625 C 42.679688 91.3125 42.917969 89.980469 43.226562 88.664062 C 43.53125 87.34375 43.90625 86.042969 44.34375 84.761719 C 44.785156 83.480469 45.292969 82.226562 45.863281 81 C 46.433594 79.769531 47.066406 78.574219 47.757812 77.410156 C 48.453125 76.246094 49.207031 75.125 50.015625 74.039062 C 50.824219 72.953125 51.691406 71.914062 52.609375 70.917969 C 53.527344 69.921875 54.492188 68.972656 55.507812 68.078125 C 56.523438 67.179688 57.582031 66.339844 58.683594 65.554688 C 59.789062 64.765625 60.929688 64.039062 62.105469 63.371094 C 63.285156 62.703125 64.492188 62.09375 65.734375 61.550781 C 66.972656 61.007812 68.238281 60.53125 69.53125 60.117188 C 70.820312 59.703125 72.128906 59.359375 73.453125 59.082031 C 74.777344 58.800781 76.113281 58.59375 77.460938 58.453125 C 78.808594 58.316406 80.160156 58.246094 81.515625 58.246094 C 82.871094 58.246094 84.21875 58.316406 85.566406 58.453125 C 86.914062 58.59375 88.25 58.800781 89.578125 59.082031 C 90.902344 59.359375 92.210938 59.703125 93.5 60.117188 C 94.789062 60.53125 96.054688 61.007812 97.296875 61.550781 C 98.535156 62.09375 99.746094 62.703125 100.925781 63.371094 C 102.101562 64.039062 103.242188 64.765625 104.34375 65.554688 C 105.449219 66.339844 106.507812 67.179688 107.523438 68.078125 C 108.539062 68.972656 109.503906 69.921875 110.421875 70.917969 C 111.339844 71.914062 112.203125 72.953125 113.015625 74.039062 C 113.824219 75.125 114.578125 76.246094 115.269531 77.410156 C 115.964844 78.574219 116.597656 79.769531 117.167969 81 C 117.738281 82.226562 118.242188 83.480469 118.683594 84.761719 C 119.125 86.042969 119.5 87.34375 119.804688 88.664062 C 120.113281 89.980469 120.347656 91.3125 120.519531 92.65625 C 120.6875 94 120.785156 95.351562 120.816406 96.703125 C 120.84375 98.058594 120.804688 99.410156 120.691406 100.761719 C 120.582031 102.109375 120.402344 103.453125 120.152344 104.78125 C 119.90625 106.113281 119.585938 107.429688 119.203125 108.726562 C 118.816406 110.027344 118.367188 111.300781 117.847656 112.554688 C 117.332031 113.804688 116.753906 115.027344 116.109375 116.21875 C 115.464844 117.410156 114.761719 118.566406 114 119.6875 C 113.238281 120.804688 112.417969 121.882812 111.546875 122.917969 C 110.671875 123.953125 109.746094 124.941406 108.769531 125.878906 C 107.792969 126.816406 106.773438 127.703125 105.707031 128.539062 L 122.746094 128.539062 C 123.339844 128.539062 123.929688 128.480469 124.511719 128.363281 C 125.097656 128.25 125.664062 128.078125 126.210938 127.847656 C 126.761719 127.621094 127.28125 127.34375 127.777344 127.011719 C 128.273438 126.683594 128.730469 126.304688 129.148438 125.886719 C 129.570312 125.464844 129.945312 125.007812 130.277344 124.515625 C 130.605469 124.019531 130.886719 123.496094 131.113281 122.949219 C 131.339844 122.398438 131.511719 121.832031 131.628906 121.25 C 131.742188 120.667969 131.800781 120.078125 131.800781 119.484375 L 131.800781 79.648438 L 151.390625 79.648438 C 151.792969 79.648438 152.1875 79.585938 152.574219 79.46875 C 152.957031 79.351562 153.320312 79.179688 153.652344 78.953125 C 153.988281 78.730469 154.28125 78.460938 154.539062 78.148438 C 154.792969 77.835938 154.996094 77.492188 155.148438 77.121094 C 155.300781 76.746094 155.398438 76.359375 155.4375 75.957031 C 155.472656 75.558594 155.453125 75.160156 155.371094 74.765625 C 155.292969 74.367188 155.15625 73.992188 154.964844 73.640625 C 154.773438 73.285156 154.535156 72.964844 154.25 72.679688 Z M 154.25 72.679688 " fill-opacity="1" fill-rule="nonzero"/></g><path fill="#5e17eb" d="M 109.976562 97.5625 C 109.976562 97.15625 109.9375 96.757812 109.859375 96.359375 C 109.78125 95.964844 109.664062 95.582031 109.507812 95.207031 C 109.351562 94.835938 109.164062 94.480469 108.9375 94.144531 C 108.714844 93.808594 108.457031 93.5 108.171875 93.214844 C 107.886719 92.925781 107.578125 92.671875 107.242188 92.449219 C 106.90625 92.222656 106.550781 92.035156 106.175781 91.878906 C 105.804688 91.726562 105.417969 91.609375 105.023438 91.53125 C 104.628906 91.453125 104.226562 91.414062 103.824219 91.414062 C 103.417969 91.414062 103.019531 91.453125 102.625 91.53125 C 102.226562 91.609375 101.84375 91.726562 101.46875 91.878906 C 101.097656 92.035156 100.742188 92.222656 100.40625 92.449219 C 100.070312 92.671875 99.757812 92.925781 99.472656 93.214844 C 99.1875 93.5 98.933594 93.808594 98.707031 94.144531 C 98.484375 94.480469 98.292969 94.835938 98.140625 95.207031 C 97.984375 95.582031 97.867188 95.964844 97.789062 96.359375 C 97.710938 96.757812 97.667969 97.15625 97.667969 97.5625 L 97.667969 103.625 L 65.359375 103.625 L 65.359375 97.5625 C 65.359375 97.15625 65.320312 96.757812 65.242188 96.359375 C 65.164062 95.964844 65.046875 95.578125 64.890625 95.207031 C 64.738281 94.832031 64.546875 94.476562 64.324219 94.140625 C 64.097656 93.804688 63.84375 93.496094 63.558594 93.210938 C 63.273438 92.921875 62.960938 92.667969 62.625 92.445312 C 62.289062 92.21875 61.933594 92.03125 61.5625 91.875 C 61.1875 91.71875 60.804688 91.605469 60.40625 91.523438 C 60.011719 91.445312 59.609375 91.40625 59.207031 91.40625 C 58.800781 91.40625 58.402344 91.445312 58.007812 91.523438 C 57.609375 91.605469 57.226562 91.71875 56.851562 91.875 C 56.476562 92.03125 56.125 92.21875 55.789062 92.445312 C 55.453125 92.667969 55.140625 92.921875 54.855469 93.210938 C 54.570312 93.496094 54.3125 93.804688 54.089844 94.140625 C 53.863281 94.476562 53.675781 94.832031 53.519531 95.207031 C 53.367188 95.578125 53.25 95.964844 53.171875 96.359375 C 53.089844 96.757812 53.050781 97.15625 53.050781 97.5625 L 53.050781 114.125 C 53.050781 114.5625 53.09375 114.996094 53.179688 115.425781 C 53.265625 115.855469 53.390625 116.273438 53.558594 116.679688 C 53.726562 117.082031 53.933594 117.46875 54.175781 117.832031 C 54.421875 118.195312 54.695312 118.535156 55.007812 118.84375 C 55.316406 119.152344 55.652344 119.429688 56.015625 119.671875 C 56.382812 119.917969 56.765625 120.121094 57.171875 120.289062 C 57.574219 120.457031 57.992188 120.585938 58.421875 120.667969 C 58.851562 120.753906 59.285156 120.796875 59.722656 120.796875 L 60.152344 120.796875 L 60.152344 124.921875 C 60.152344 125.195312 60.203125 125.457031 60.308594 125.707031 C 60.410156 125.960938 60.558594 126.183594 60.753906 126.375 C 60.945312 126.566406 61.167969 126.714844 61.417969 126.820312 C 61.671875 126.925781 61.933594 126.976562 62.207031 126.976562 C 62.476562 126.976562 62.738281 126.925781 62.992188 126.820312 C 63.242188 126.714844 63.464844 126.566406 63.65625 126.375 C 63.851562 126.183594 64 125.960938 64.101562 125.707031 C 64.207031 125.457031 64.261719 125.195312 64.261719 124.921875 L 64.261719 120.796875 L 98.851562 120.796875 L 98.851562 124.921875 C 98.851562 125.195312 98.90625 125.457031 99.007812 125.707031 C 99.113281 125.960938 99.261719 126.183594 99.453125 126.375 C 99.648438 126.566406 99.867188 126.714844 100.121094 126.820312 C 100.371094 126.925781 100.632812 126.976562 100.90625 126.976562 C 101.179688 126.976562 101.441406 126.925781 101.691406 126.820312 C 101.945312 126.714844 102.167969 126.566406 102.359375 126.375 C 102.550781 126.183594 102.699219 125.960938 102.804688 125.707031 C 102.910156 125.457031 102.960938 125.195312 102.960938 124.921875 L 102.960938 120.796875 L 103.304688 120.796875 C 103.742188 120.796875 104.179688 120.753906 104.609375 120.667969 C 105.039062 120.585938 105.453125 120.457031 105.859375 120.289062 C 106.265625 120.121094 106.648438 119.917969 107.011719 119.671875 C 107.375 119.429688 107.714844 119.152344 108.023438 118.84375 C 108.332031 118.535156 108.609375 118.195312 108.851562 117.832031 C 109.097656 117.46875 109.300781 117.082031 109.46875 116.679688 C 109.636719 116.273438 109.765625 115.855469 109.851562 115.425781 C 109.933594 114.996094 109.976562 114.5625 109.976562 114.125 Z M 109.976562 97.5625 " fill-opacity="1" fill-rule="nonzero"/><path fill="#5e17eb" d="M 68.550781 97.5625 L 68.550781 100.847656 L 94.480469 100.847656 L 94.480469 97.5625 C 94.480469 96.949219 94.542969 96.339844 94.664062 95.742188 C 94.785156 95.140625 94.960938 94.558594 95.195312 93.992188 C 95.429688 93.425781 95.71875 92.886719 96.058594 92.378906 C 96.398438 91.871094 96.785156 91.398438 97.21875 90.964844 C 97.652344 90.53125 98.125 90.144531 98.632812 89.804688 C 99.144531 89.464844 99.679688 89.175781 100.246094 88.941406 C 100.8125 88.707031 101.394531 88.527344 101.996094 88.410156 C 102.597656 88.289062 103.203125 88.226562 103.816406 88.226562 L 104.078125 88.226562 L 104.078125 81.851562 C 104.078125 81.3125 104.027344 80.777344 103.921875 80.246094 C 103.816406 79.71875 103.660156 79.203125 103.453125 78.707031 C 103.246094 78.207031 102.992188 77.734375 102.695312 77.285156 C 102.394531 76.835938 102.054688 76.421875 101.671875 76.039062 C 101.289062 75.660156 100.875 75.316406 100.425781 75.019531 C 99.976562 74.71875 99.503906 74.464844 99.007812 74.257812 C 98.507812 74.050781 97.992188 73.898438 97.464844 73.792969 C 96.933594 73.6875 96.402344 73.632812 95.863281 73.632812 L 67.21875 73.632812 C 66.679688 73.632812 66.144531 73.6875 65.613281 73.792969 C 65.085938 73.898438 64.570312 74.050781 64.074219 74.257812 C 63.574219 74.464844 63.101562 74.71875 62.652344 75.019531 C 62.203125 75.316406 61.789062 75.660156 61.40625 76.039062 C 61.027344 76.421875 60.6875 76.835938 60.386719 77.285156 C 60.085938 77.734375 59.832031 78.207031 59.625 78.707031 C 59.421875 79.203125 59.265625 79.71875 59.160156 80.246094 C 59.054688 80.777344 59 81.3125 59 81.851562 L 59 88.242188 L 59.265625 88.242188 C 59.875 88.246094 60.476562 88.3125 61.074219 88.433594 C 61.671875 88.554688 62.253906 88.734375 62.816406 88.96875 C 63.378906 89.207031 63.910156 89.496094 64.417969 89.835938 C 64.921875 90.175781 65.390625 90.5625 65.820312 90.992188 C 66.253906 91.425781 66.636719 91.894531 66.976562 92.402344 C 67.3125 92.910156 67.601562 93.445312 67.835938 94.007812 C 68.066406 94.570312 68.246094 95.152344 68.367188 95.75 C 68.484375 96.347656 68.546875 96.949219 68.550781 97.5625 Z M 68.550781 97.5625 " fill-opacity="1" fill-rule="nonzero"/><g fill="#5e17eb" fill-opacity="1"><g transform="translate(142.623441, 126.824662)"><g><path d="M 3.296875 0 L 3.296875 -47.1875 L 13 -47.1875 L 13 -25.1875 L 13.109375 -25.1875 C 15.640625 -27.707031 18.332031 -28.96875 21.1875 -28.96875 C 22.570312 -28.96875 23.945312 -28.785156 25.3125 -28.421875 C 26.6875 -28.054688 28.003906 -27.488281 29.265625 -26.71875 C 30.535156 -25.957031 31.5625 -24.867188 32.34375 -23.453125 C 33.132812 -22.046875 33.53125 -20.410156 33.53125 -18.546875 L 33.53125 0 L 23.8125 0 L 23.8125 -15.90625 C 23.8125 -17.375 23.34375 -18.65625 22.40625 -19.75 C 21.476562 -20.851562 20.265625 -21.40625 18.765625 -21.40625 C 17.304688 -21.40625 15.976562 -20.835938 14.78125 -19.703125 C 13.59375 -18.566406 13 -17.300781 13 -15.90625 L 13 0 Z M 3.296875 0 "/></g></g></g><g fill="#5e17eb" fill-opacity="1"><g transform="translate(178.8984, 126.824662)"><g><path d="M 5.953125 -3.34375 C 2.828125 -6.125 1.265625 -9.691406 1.265625 -14.046875 C 1.265625 -18.398438 2.890625 -21.972656 6.140625 -24.765625 C 9.398438 -27.566406 13.425781 -28.96875 18.21875 -28.96875 C 22.9375 -28.96875 26.914062 -27.554688 30.15625 -24.734375 C 33.394531 -21.921875 35.015625 -18.359375 35.015625 -14.046875 C 35.015625 -9.734375 33.429688 -6.175781 30.265625 -3.375 C 27.097656 -0.570312 23.082031 0.828125 18.21875 0.828125 C 13.164062 0.828125 9.078125 -0.5625 5.953125 -3.34375 Z M 13.46875 -18.8125 C 12.207031 -17.570312 11.578125 -15.984375 11.578125 -14.046875 C 11.578125 -12.109375 12.179688 -10.523438 13.390625 -9.296875 C 14.597656 -8.078125 16.1875 -7.46875 18.15625 -7.46875 C 20.0625 -7.46875 21.625 -8.085938 22.84375 -9.328125 C 24.070312 -10.566406 24.6875 -12.140625 24.6875 -14.046875 C 24.6875 -15.984375 24.054688 -17.570312 22.796875 -18.8125 C 21.535156 -20.0625 19.988281 -20.6875 18.15625 -20.6875 C 16.289062 -20.6875 14.726562 -20.0625 13.46875 -18.8125 Z M 13.46875 -18.8125 "/></g></g></g><g fill="#5e17eb" fill-opacity="1"><g transform="translate(215.17336, 126.824662)"><g><path d="M 3.296875 0 L 3.296875 -28.15625 L 13 -28.15625 L 13 -25.1875 L 13.109375 -25.1875 C 15.640625 -27.707031 18.332031 -28.96875 21.1875 -28.96875 C 23.226562 -28.96875 25.144531 -28.546875 26.9375 -27.703125 C 28.726562 -26.867188 30.082031 -25.570312 31 -23.8125 C 33.851562 -27.25 36.960938 -28.96875 40.328125 -28.96875 C 43.328125 -28.96875 45.90625 -28.125 48.0625 -26.4375 C 50.226562 -24.757812 51.3125 -22.128906 51.3125 -18.546875 L 51.3125 0 L 41.59375 0 L 41.59375 -15.90625 C 41.59375 -17.40625 41.179688 -18.660156 40.359375 -19.671875 C 39.535156 -20.679688 38.300781 -21.1875 36.65625 -21.1875 C 35.226562 -21.1875 34.140625 -20.753906 33.390625 -19.890625 C 32.640625 -19.035156 32.226562 -18.003906 32.15625 -16.796875 L 32.15625 0 L 22.4375 0 L 22.4375 -15.90625 C 22.4375 -17.40625 22.023438 -18.660156 21.203125 -19.671875 C 20.378906 -20.679688 19.144531 -21.1875 17.5 -21.1875 C 16 -21.1875 14.875 -20.71875 14.125 -19.78125 C 13.375 -18.851562 13 -17.75 13 -16.46875 L 13 0 Z M 3.296875 0 "/></g></g></g><g fill="#5e17eb" fill-opacity="1"><g transform="translate(269.229084, 126.824662)"><g><path d="M 31.765625 -12.734375 L 11.359375 -12.734375 C 11.359375 -10.753906 12 -9.289062 13.28125 -8.34375 C 14.5625 -7.394531 15.953125 -6.921875 17.453125 -6.921875 C 19.023438 -6.921875 20.265625 -7.128906 21.171875 -7.546875 C 22.085938 -7.960938 23.132812 -8.796875 24.3125 -10.046875 L 31.328125 -6.53125 C 28.398438 -1.625 23.535156 0.828125 16.734375 0.828125 C 12.492188 0.828125 8.851562 -0.625 5.8125 -3.53125 C 2.78125 -6.445312 1.265625 -9.953125 1.265625 -14.046875 C 1.265625 -18.140625 2.78125 -21.648438 5.8125 -24.578125 C 8.851562 -27.503906 12.492188 -28.96875 16.734375 -28.96875 C 21.203125 -28.96875 24.832031 -27.675781 27.625 -25.09375 C 30.425781 -22.519531 31.828125 -18.835938 31.828125 -14.046875 C 31.828125 -13.390625 31.804688 -12.953125 31.765625 -12.734375 Z M 11.640625 -18.109375 L 22.328125 -18.109375 C 22.109375 -19.566406 21.53125 -20.6875 20.59375 -21.46875 C 19.664062 -22.257812 18.472656 -22.65625 17.015625 -22.65625 C 15.398438 -22.65625 14.117188 -22.234375 13.171875 -21.390625 C 12.222656 -20.554688 11.710938 -19.460938 11.640625 -18.109375 Z M 11.640625 -18.109375 "/></g></g></g><g fill="#5e17eb" fill-opacity="1"><g transform="translate(302.321068, 126.824662)"><g><path d="M 15.53125 -28.96875 C 17.132812 -28.96875 18.722656 -28.785156 20.296875 -28.421875 C 21.867188 -28.054688 23.039062 -27.691406 23.8125 -27.328125 L 24.96875 -26.78125 L 21.78125 -20.40625 C 19.59375 -21.582031 17.507812 -22.171875 15.53125 -22.171875 C 14.4375 -22.171875 13.660156 -22.050781 13.203125 -21.8125 C 12.742188 -21.570312 12.515625 -21.125 12.515625 -20.46875 C 12.515625 -20.320312 12.53125 -20.175781 12.5625 -20.03125 C 12.601562 -19.882812 12.675781 -19.742188 12.78125 -19.609375 C 12.894531 -19.484375 12.992188 -19.375 13.078125 -19.28125 C 13.171875 -19.195312 13.328125 -19.097656 13.546875 -18.984375 C 13.773438 -18.878906 13.953125 -18.796875 14.078125 -18.734375 C 14.203125 -18.679688 14.410156 -18.597656 14.703125 -18.484375 C 14.992188 -18.378906 15.210938 -18.296875 15.359375 -18.234375 C 15.503906 -18.179688 15.75 -18.097656 16.09375 -17.984375 C 16.445312 -17.878906 16.71875 -17.8125 16.90625 -17.78125 C 18.039062 -17.445312 19.023438 -17.078125 19.859375 -16.671875 C 20.703125 -16.273438 21.585938 -15.726562 22.515625 -15.03125 C 23.453125 -14.34375 24.175781 -13.46875 24.6875 -12.40625 C 25.207031 -11.34375 25.46875 -10.132812 25.46875 -8.78125 C 25.46875 -2.375 21.019531 0.828125 12.125 0.828125 C 10.113281 0.828125 8.203125 0.515625 6.390625 -0.109375 C 4.578125 -0.734375 3.269531 -1.351562 2.46875 -1.96875 L 1.265625 -2.96875 L 5.21875 -9.609375 C 5.507812 -9.347656 5.890625 -9.039062 6.359375 -8.6875 C 6.835938 -8.34375 7.695312 -7.867188 8.9375 -7.265625 C 10.1875 -6.660156 11.269531 -6.359375 12.1875 -6.359375 C 14.195312 -6.359375 15.203125 -7.035156 15.203125 -8.390625 C 15.203125 -9.015625 14.941406 -9.5 14.421875 -9.84375 C 13.910156 -10.195312 13.039062 -10.59375 11.8125 -11.03125 C 10.59375 -11.46875 9.632812 -11.867188 8.9375 -12.234375 C 7.1875 -13.148438 5.796875 -14.179688 4.765625 -15.328125 C 3.742188 -16.484375 3.234375 -18.015625 3.234375 -19.921875 C 3.234375 -22.773438 4.335938 -24.992188 6.546875 -26.578125 C 8.765625 -28.171875 11.757812 -28.96875 15.53125 -28.96875 Z M 15.53125 -28.96875 "/></g></g></g></svg>